<?xml version="1.0" standalone="no"?>
<!DOCTYPE svg PUBLIC "-//W3C//DTD SVG 20010904//EN"
 "http://www.w3.org/TR/2001/REC-SVG-20010904/DTD/svg10.dtd">
<svg version="1.0" xmlns="http://www.w3.org/2000/svg"
 width="216.000000pt" height="216.000000pt" viewBox="0 0 216.000000 216.000000"
 preserveAspectRatio="xMidYMid meet">
<metadata>
Created by potrace 1.11, written by Peter Selinger 2001-2013
</metadata>
<g transform="translate(0.000000,216.000000) scale(0.100000,-0.100000)"
fill="#000000" stroke="none">
<path d="M971 1744 c-146 -53 -269 -209 -336 -428 -33 -106 -66 -161 -164
-274 -78 -89 -100 -129 -86 -151 16 -26 91 -2 147 48 42 36 52 39 45 10 -10
-36 10 -181 33 -242 38 -101 147 -190 260 -212 29 -6 24 -1 -27 25 -138 69
-189 212 -163 450 32 291 117 519 219 587 40 27 99 30 143 7 29 -15 34 -15 59
0 60 36 152 9 207 -61 88 -112 149 -306 172 -548 22 -237 -36 -379 -182 -445
-51 -23 -41 -25 24 -6 104 32 166 85 215 183 33 67 37 83 41 178 3 58 7 105 9
105 3 0 21 -14 41 -31 56 -50 131 -74 147 -48 14 22 -8 62 -86 151 -102 117
-123 153 -175 299 -23 65 -56 143 -74 174 -48 83 -130 167 -202 205 -54 29
-75 34 -143 37 -55 2 -94 -2 -124 -13z"/>
<path d="M1166 1368 c-13 -19 -14 -25 -2 -43 26 -39 76 -26 76 19 0 46 -48 62
-74 24z m62 -19 c-2 -6 -8 -10 -13 -10 -5 0 -11 4 -13 10 -2 6 4 11 13 11 9 0
15 -5 13 -11z"/>
<path d="M924 1366 c-3 -8 -4 -25 -2 -38 2 -19 9 -23 38 -23 24 0 36 5 38 16
2 10 -3 16 -10 15 -7 0 -13 4 -13 9 0 6 6 9 13 9 7 -1 11 3 9 10 -6 18 -66 20
-73 2z"/>
</g>
</svg>
